<!-- Generator: Adobe Illustrator 18.1.0, SVG Export Plug-In  -->
<svg version="1.1"
	 xmlns="http://www.w3.org/2000/svg" xmlns:xlink="http://www.w3.org/1999/xlink" xmlns:a="http://ns.adobe.com/AdobeSVGViewerExtensions/3.0/"
	 x="0px" y="0px" width="131.332px" height="131.332px" viewBox="0 0 131.332 131.332" enable-background="new 0 0 131.332 131.332"
	 xml:space="preserve">
<defs>
</defs>
<g>
	<circle fill="#035124" cx="65.666" cy="65.666" r="65.666"/>
	<path fill="#FFFFFF" d="M46.211,125.582c-1.471-8.091,1.967-14.029,7.574-19.655c7.505-7.531,14.3-15.775,21.241-23.871
		c-5.777,4.06-10.543,9.199-15.071,14.548c-4.552,5.378-8.904,10.926-13.62,16.74c-0.169-3.41,0.217-6.022,1.524-8.954
		c3.92-8.794,7.131-17.907,10.587-26.907c0.485-1.262,0.792-2.594,1.182-3.893c-0.274-0.102-0.547-0.204-0.821-0.307
		c-3.27,7.212-6.54,14.425-9.96,21.968c0.618-5.157,1.198-10.002,1.779-14.848c-0.201-0.035-0.401-0.071-0.602-0.107
		c-1.007,4.381-2.015,8.762-3.022,13.142c-0.123-0.003-0.247-0.006-0.37-0.009C46.421,90.62,46.21,87.81,45.998,85
		c-0.174-0.001-0.349-0.003-0.523-0.004c0,5.816,0,11.631,0,17.447c-0.163,0.006-0.327,0.012-0.49,0.018
		c-4.49-8.673-8.98-17.345-13.469-26.018c-0.281,0.132-0.563,0.263-0.843,0.395c0.366,0.781,0.709,1.574,1.102,2.342
		c4.399,8.601,8.824,17.189,13.179,25.812c0.447,0.885,0.48,1.979,0.256,3.219c-0.842-0.757-1.683-1.513-2.524-2.27
		c3.416,3.685,2.434,8.158,2.402,12.439c-0.014,1.953-0.002,3.905-0.002,6.382c-3.537-5.71-6.055-11.588-11.26-15.427
		c4.285,5.675,8.572,11.327,10.987,18.327c0,0,0,0,2.713,1.063c-0.053-0.033-0.106-0.055-0.159-0.092
		C46.625,128.117,46.407,126.661,46.211,125.582z"/>
	<path fill="#FFFFFF" d="M84.569,105.624c-0.379,0.333-0.215-0.08,0.06-0.679c0.059-0.641,0.134-1.281,0.199-1.922l0.006,0.007
		c0.014-0.007,0.028-0.013,0.042-0.02c-0.104-0.473-0.279-0.947-0.264-1.416c0.256-7.997,0.608-15.992,0.771-23.99
		c0.043-2.108,0.737-3.682,2.108-5.208c9.253-10.309,18.45-20.668,27.671-31.006c2.409-2.7,4.837-5.385,7.572-8.429
		c-0.312-0.539-0.624-1.078-0.951-1.607c-13.469,12.594-24.831,26.943-35.83,41.607c-0.265-0.067-0.53-0.134-0.795-0.201
		c0-2.565-0.019-5.13,0.016-7.695c0.006-0.501,0.082-1.092,0.351-1.486c6.381-9.329,9.589-20.063,13.405-30.515
		c2.322-6.361,4.363-12.827,6.633-19.556c-0.878-0.54-0.878-0.54-0.878-0.54c-2.777,5.723-5.678,11.392-8.298,17.19
		c-2.585,5.719-7.603,21.497-10.215,27.738c1.237-9.857,5.136-29.18,6.314-38.575c-0.134-0.028-0.267-0.056-0.401-0.084
		c-1.89,8.328-3.78,16.656-5.669,24.984c-0.144,0.013-1.12,9.306-1.263,9.319c-0.556-6.616-0.279-22.511-0.835-29.127
		c-0.09-0.002-0.18-0.004-0.27-0.006c0,11.129,0,22.259,0,33.388C76.858,43.999,70.673,29.813,61.491,17.21
		c0.37,0.835,0.699,1.691,1.114,2.502c6.903,13.491,13.857,26.956,20.673,40.491c0.785,1.56,0.817,3.501,1.198,5.266
		c-0.246,0.058-0.493,0.116-0.739,0.174c-2.601-2.765-9.768-8.64-12.436-11.45c-0.004-0.003-0.007-0.005-0.011-0.008
		c2.486,2.759,8.976,9.062,11.354,11.822c0.589,0.684,1.254,1.613,1.266,2.438c0.1,6.924,0.057,13.85-0.292,20.833
		c-4.955-7.647-11.897-19.165-18.869-25.118c-0.091,0.062-0.855,0.112-1.629,0.162c-0.573,0.057-1.136,0.112-1.692,0.166v0
		c0.421,0.593,6.796,4.44,7.198,5.046c4.378,6.596,8.263,11.979,11.824,17.655c2.21,3.522,3.257,7.516,2.966,11.823
		c-0.628,9.299-1.126,18.607-1.643,27.914c-0.104,1.881-0.904,2.678-2.711,3.093c1.352-0.275,2.684-0.605,4.005-0.962
		c0.17-1.552,0.337-2.697,0.404-3.838C83.85,118.689,84.198,112.156,84.569,105.624z"/>
	<path fill="#FFFFFF" d="M38.677,65.964c0.019,0.398,0.038,0.796,0.057,1.194c4.166-0.545,8.327-1.14,12.5-1.621
		c3.278-0.379,6.568-0.692,10.194-1.046c0.094-0.064,0.897-0.115,1.692-0.166c0.536-0.053,1.076-0.107,1.629-0.162
		C55.367,61.848,47.118,65.273,38.677,65.964z"/>
	<path fill="#FFFFFF" d="M13.473,93.863c8.5,0.759,16.933,1.749,24.065,7.257C31.184,92.907,22.284,93.536,13.473,93.863z"/>
	<path fill="#FFFFFF" d="M71.227,54.14c0.021,0.015,0.043,0.03,0.064,0.046c-0.016-0.018-0.036-0.039-0.052-0.057
		C71.233,54.133,71.232,54.135,71.227,54.14z"/>
	<path fill="#FFFFFF" d="M63.2,119.112c-0.242-0.244-0.484-0.488-0.726-0.731c-3.669,3.152-7.453,6.182-10.95,9.515
		c-0.838,0.799-1.66,1.227-2.471,1.263c3.942,1.042,2.776,0.643,2.776,0.643C55.744,126.12,59.472,122.616,63.2,119.112z"/>
	<path fill="#FFFFFF" d="M17.631,108.093c0.023,0.262,0.046,0.524,0.07,0.785c4.379-0.482,8.759-0.964,13.139-1.446
		C26.321,106.151,22.013,107.598,17.631,108.093z"/>
	<path fill="#FFFFFF" d="M36.195,44.172c12.403,0.952,24.64,2.453,35.032,9.968c0.005-0.005,0.007-0.006,0.012-0.011
		c0.047-0.043,0.058-0.053,0.053-0.048c0.006-0.005-0.006,0.005-0.053,0.048c0.019,0.02,0.044,0.044,0.063,0.065
		c0.942,0.684,1.873,1.399,2.783,2.187C64.385,42.922,50.257,43.653,36.195,44.172z"/>
	<path fill="#FFFFFF" d="M84.63,104.944c-0.021,0.227-0.048,0.453-0.061,0.68c6.592-5.802,17.111-16.321,23.647-22.186
		c0.81-0.727,1.659-1.409,2.491-2.111c-0.213-0.216-0.426-0.432-0.639-0.648c-9.711,5.84-17.661,13.706-25.026,22.248
		C85.79,102.558,85.068,103.988,84.63,104.944z"/>
	<path fill="#243D1D" d="M84.834,103.03l-0.006-0.007c-0.065,0.641-0.14,1.281-0.199,1.922c0,0,0.001-0.001,0.001-0.001
		C84.689,104.304,84.765,103.665,84.834,103.03z"/>
	<path fill="none" stroke="#243D1D" stroke-width="0" stroke-linecap="round" stroke-linejoin="round" d="M71.239,54.129
		c-0.005,0.005-0.007,0.007-0.012,0.011"/>
	<path fill="none" stroke="#243D1D" stroke-width="0" stroke-linecap="round" stroke-linejoin="round" d="M71.291,54.081
		c0.006-0.005-0.006,0.005-0.053,0.048"/>
	<path fill="#243D1D" d="M64.749,64.161c-0.553,0.056-1.093,0.109-1.629,0.162C63.894,64.274,64.658,64.223,64.749,64.161z"/>
	<path fill="#243D1D" d="M63.12,64.323c-0.794,0.051-1.598,0.102-1.692,0.166C61.984,64.435,62.547,64.38,63.12,64.323z"/>
	<path fill="#243D1D" d="M71.291,54.185c0.004,0.003,0.007,0.005,0.011,0.008c-0.02-0.02-0.044-0.045-0.063-0.065
		C71.255,54.146,71.275,54.168,71.291,54.185z"/>
	<path fill="#243D1D" d="M84.834,103.03c-0.069,0.635-0.145,1.274-0.204,1.914c0.439-0.956,1.16-2.386,0.413-2.017
		c-0.048,0.056-0.098,0.112-0.146,0.169L84.834,103.03z"/>
	<path fill="#243D1D" d="M84.629,104.946c-0.275,0.598-0.439,1.012-0.06,0.679c0.013-0.227,0.039-0.453,0.061-0.68
		C84.63,104.944,84.629,104.945,84.629,104.946z"/>
	<path fill="#243D1D" d="M85.042,102.927c-0.055,0.028-0.112,0.054-0.166,0.082c0.006,0.029,0.014,0.058,0.02,0.086
		C84.945,103.04,84.994,102.984,85.042,102.927z"/>
	<path fill="#243D1D" d="M84.896,103.096c-0.006-0.029-0.014-0.058-0.02-0.086c-0.014,0.007-0.028,0.013-0.042,0.02
		C84.828,103.024,84.896,103.096,84.896,103.096z"/>
	<path fill="#243D1D" d="M84.834,103.03l0.062,0.066C84.896,103.096,84.828,103.024,84.834,103.03z"/>
</g>
</svg>